<svg width="64" height="64" viewBox="0 0 64 64" fill="none" xmlns="http://www.w3.org/2000/svg">
<circle cx="31.99" cy="31.99" r="29.99" stroke="#F1F1F1" stroke-width="4"/>
<path d="M29.2378 43.7163C28.8849 43.717 28.5428 43.5871 28.2711 43.3492C28.1181 43.2152 27.9917 43.0507 27.899 42.865C27.8063 42.6793 27.7492 42.4761 27.731 42.2671C27.7127 42.0581 27.7337 41.8473 27.7927 41.6468C27.8517 41.4464 27.9475 41.2602 28.0747 41.0989L34.8419 32.5446L28.3164 23.9742C28.1909 23.811 28.0972 23.6232 28.0407 23.4215C27.9841 23.2199 27.9659 23.0084 27.9869 22.7993C28.008 22.5902 28.0679 22.3876 28.1634 22.203C28.2588 22.0185 28.3878 21.8556 28.543 21.7239C28.6993 21.5787 28.8823 21.4691 29.0806 21.4021C29.2788 21.335 29.4881 21.3121 29.6952 21.3345C29.9023 21.357 30.1027 21.4245 30.2839 21.5327C30.4652 21.6409 30.6233 21.7875 30.7484 21.9633L38.0443 31.5391C38.2665 31.8247 38.3879 32.1829 38.3879 32.5525C38.3879 32.9222 38.2665 33.2804 38.0443 33.566L30.4916 43.1417C30.34 43.3349 30.1475 43.4875 29.9297 43.5874C29.7119 43.6872 29.4748 43.7314 29.2378 43.7163Z" fill="#F1F1F1"/>
</svg>
