<svg width="64" height="64" viewBox="0 0 64 64" fill="none" xmlns="http://www.w3.org/2000/svg">
<circle cx="31.99" cy="32.01" r="29.99" transform="rotate(-90 31.99 32.01)" stroke="#222222" stroke-width="4"/>
<path d="M43.7163 34.7622C43.717 35.1151 43.5871 35.4572 43.3492 35.7289C43.2152 35.8819 43.0507 36.0083 42.865 36.101C42.6793 36.1937 42.4761 36.2508 42.2671 36.269C42.0581 36.2873 41.8473 36.2663 41.6468 36.2073C41.4464 36.1483 41.2602 36.0525 41.0989 35.9253L32.5446 29.1581L23.9742 35.6836C23.811 35.8091 23.6232 35.9028 23.4215 35.9593C23.2199 36.0159 23.0084 36.0341 22.7993 36.0131C22.5902 35.992 22.3876 35.9321 22.203 35.8366C22.0185 35.7412 21.8556 35.6122 21.7239 35.457C21.5787 35.3007 21.4691 35.1177 21.4021 34.9194C21.335 34.7212 21.3121 34.5119 21.3345 34.3048C21.357 34.0977 21.4245 33.8973 21.5327 33.7161C21.6409 33.5348 21.7875 33.3767 21.9633 33.2516L31.5391 25.9557C31.8247 25.7335 32.1829 25.6121 32.5525 25.6121C32.9222 25.6121 33.2804 25.7335 33.566 25.9557L43.1417 33.5084C43.3349 33.66 43.4875 33.8525 43.5874 34.0703C43.6872 34.2881 43.7314 34.5252 43.7163 34.7622Z" fill="#222222"/>
</svg>
