<svg width="34" height="31" viewBox="0 0 34 31" fill="none" xmlns="http://www.w3.org/2000/svg">
<path d="M29.62 4.38129C28.8681 3.62651 27.9746 3.02762 26.9908 2.61899C26.007 2.21035 24.9523 2 23.8871 2C22.8218 2 21.7671 2.21035 20.7833 2.61899C19.7995 3.02762 18.906 3.62651 18.1541 4.38129L17 5.55076L15.8459 4.38129C15.094 3.62651 14.2005 3.02762 13.2167 2.61899C12.2329 2.21035 11.1782 2 10.1129 2C9.04771 2 7.99295 2.21035 7.00916 2.61899C6.02537 3.02762 5.13189 3.62651 4.37997 4.38129C1.20248 7.55984 1.00763 12.9274 5.00947 17.0055L17 29L28.9905 17.0055C32.9924 12.9274 32.7975 7.55984 29.62 4.38129Z" stroke="black" stroke-width="4" stroke-linecap="round" stroke-linejoin="round"/>
</svg>
