<svg width="271" height="69" viewBox="0 0 271 69" fill="none" xmlns="http://www.w3.org/2000/svg">
<g clip-path="url(#clip0_1395_518)">
<path d="M53.6 8H18.4C14.8654 8 12 10.8392 12 14.3415V53.6585C12 57.1608 14.8654 60 18.4 60H53.6C57.1346 60 60 57.1608 60 53.6585V14.3415C60 10.8392 57.1346 8 53.6 8Z" fill="#fff"/>
<path d="M48.7045 22.8996C49.1482 23.2555 48.8652 24.0778 48.1475 24.955C47.432 25.8424 46.2805 26.814 45.0744 27.7174C43.8684 28.6208 42.6166 29.4723 41.7011 30.12C40.777 30.7628 40.2205 31.2009 40.2084 31.1275C40.0567 30.7289 39.5422 30.2356 38.8098 30.0162C38.4526 29.9019 38.0639 29.8454 37.691 29.8507C37.349 29.8449 36.8807 29.9424 36.4321 30.1319C35.5161 30.5042 34.533 31.2783 33.7495 32.304C32.9548 33.3316 32.3791 34.5741 32.0899 35.8686C31.8087 37.1635 31.832 38.4669 32.1955 39.5194C32.3657 40.0514 32.6455 40.5261 33.0229 40.9963C33.4088 41.454 33.9017 41.881 34.4824 42.2334C35.6509 42.9447 37.0952 43.3486 38.6402 43.3628C40.1781 43.3859 41.7759 43.0283 43.2352 42.3187C43.8571 42.0229 44.7135 42.5251 45.313 43.2707C45.9026 44.0033 46.1377 45.0701 45.3604 45.7138C43.5481 47.0224 41.4055 47.9379 39.1066 48.3129C36.8215 48.6955 34.3244 48.526 31.9879 47.6372C30.8176 47.1941 29.6782 46.5624 28.6413 45.731C27.6152 44.8947 26.6768 43.848 25.9918 42.6625C24.5967 40.2906 24.119 37.6476 24.1799 35.1441C24.2574 32.629 24.8815 30.1418 26.0262 27.8616C27.1728 25.5832 28.8471 23.4338 31.2027 21.7737C32.3847 20.9463 33.7049 20.2684 35.2356 19.8146C36.7345 19.3716 38.2925 19.1856 39.8517 19.251C41.4106 19.3182 42.9781 19.6327 44.4864 20.239C45.9929 20.8404 47.4447 21.7311 48.7045 22.8996Z" fill="#000"/>
<path d="M100.156 35.6345C101.281 35.6345 102.192 36.5399 102.192 37.6566C102.192 42.9669 97.8432 47.2876 92.4986 47.2876C87.154 47.2876 82.8057 42.9671 82.8057 37.6566V31.1349C82.8057 25.8246 87.154 21.5039 92.4986 21.5039C97.8432 21.5039 102.192 25.8245 102.192 31.1349C102.192 32.2517 101.28 33.1571 100.156 33.1571C99.0325 33.1571 98.1212 32.2516 98.1212 31.1349C98.1212 28.0545 95.5991 25.5484 92.4988 25.5484C89.3985 25.5484 86.8763 28.0544 86.8763 31.1349V37.6566C86.8763 40.737 89.3985 43.2431 92.4988 43.2431C95.5991 43.2431 98.1212 40.7371 98.1212 37.6566C98.1212 36.5398 99.0325 35.6345 100.156 35.6345ZM113.251 28.3801C118.497 28.3801 122.766 32.6211 122.766 37.8343V45.266C122.766 46.3828 121.854 47.2882 120.73 47.2882C119.606 47.2882 118.695 46.3827 118.695 45.266V37.8343C118.695 34.8516 116.253 32.425 113.251 32.425C110.249 32.425 107.807 34.8517 107.807 37.8343V45.266C107.807 46.3828 106.896 47.2882 105.772 47.2882C104.648 47.2882 103.737 46.3827 103.737 45.266V23.527C103.737 22.4102 104.648 21.5048 105.772 21.5048C106.896 21.5048 107.807 22.4103 107.807 23.527V30.0875C109.351 29.0132 111.227 28.3801 113.251 28.3801ZM126.33 28.3295C127.454 28.3295 128.365 29.2349 128.365 30.3516V45.2655C128.365 46.3823 127.454 47.2876 126.33 47.2876C125.206 47.2876 124.295 46.3822 124.295 45.2655V30.3516C124.295 29.2349 125.206 28.3295 126.33 28.3295ZM124.45 24.2999C124.399 24.1786 124.361 24.0496 124.335 23.9207C124.307 23.7918 124.295 23.6578 124.295 23.5264C124.295 23.395 124.307 23.261 124.335 23.1321C124.361 23.0031 124.399 22.8742 124.45 22.7529C124.501 22.6316 124.564 22.5128 124.638 22.404C124.712 22.2928 124.796 22.1892 124.89 22.0957C124.984 22.0022 125.088 21.9187 125.2 21.8454C125.31 21.7721 125.429 21.7089 125.551 21.6584C125.673 21.6079 125.803 21.5699 125.933 21.5447C126.594 21.4107 127.297 21.6281 127.77 22.0957C127.861 22.1892 127.948 22.2929 128.022 22.4041C128.095 22.5128 128.159 22.6316 128.21 22.7529C128.261 22.8743 128.299 23.0032 128.324 23.1321C128.352 23.261 128.365 23.395 128.365 23.5264C128.365 23.6579 128.352 23.7918 128.324 23.9208C128.299 24.0497 128.261 24.1786 128.21 24.2999C128.159 24.4213 128.095 24.5401 128.022 24.6488C127.948 24.76 127.861 24.8636 127.77 24.9571C127.676 25.0507 127.571 25.1341 127.459 25.2074C127.35 25.2807 127.23 25.3439 127.108 25.3944C126.986 25.445 126.856 25.4829 126.727 25.5082C126.597 25.536 126.462 25.5486 126.33 25.5486C126.198 25.5486 126.063 25.536 125.933 25.5082C125.803 25.4829 125.674 25.445 125.551 25.3944C125.429 25.3439 125.31 25.2807 125.2 25.2074C125.088 25.1341 124.984 25.0507 124.89 24.9571C124.796 24.8636 124.712 24.76 124.638 24.6488C124.564 24.5401 124.501 24.4213 124.45 24.2999ZM143.36 41.6514C144.155 40.8617 145.443 40.8616 146.238 41.6515C147.033 42.4412 147.033 43.7215 146.238 44.5112C144.436 46.3016 142.041 47.2875 139.492 47.2875C134.232 47.2875 129.952 43.0354 129.952 37.8084C129.952 32.5814 134.232 28.3293 139.492 28.3293C142.041 28.3293 144.436 29.3152 146.238 31.1058C147.033 31.8955 147.033 33.1759 146.238 33.9656C145.443 34.7552 144.154 34.7552 143.36 33.9656C142.327 32.939 140.953 32.3738 139.492 32.3738C136.476 32.3738 134.022 34.8118 134.022 37.8086C134.022 40.8053 136.476 43.2433 139.492 43.2433C140.953 43.2433 142.327 42.6779 143.36 41.6514ZM177.553 44.5971C177.866 45.4877 177.518 46.4755 176.714 46.9773C175.91 47.4793 174.864 47.362 174.192 46.6949L166.535 39.0863C165.74 38.2966 165.74 37.0162 166.535 36.2265C167.33 35.4369 168.618 35.4369 169.413 36.2265L170.764 37.5693L167.974 29.6475L162.237 45.9334C161.944 46.7665 161.157 47.288 160.316 47.288C160.093 47.2883 159.867 47.2514 159.644 47.1741C158.583 46.8052 158.024 45.6515 158.395 44.5976L166.053 22.8585C166.339 22.0473 167.109 21.5043 167.974 21.5043C168.839 21.5043 169.609 22.0473 169.895 22.8585L177.553 44.5971ZM193.459 28.5431C194.465 29.0424 194.872 30.2572 194.369 31.2559L186.865 46.1697C186.52 46.8548 185.815 47.2875 185.044 47.2875C184.274 47.2875 183.569 46.8548 183.224 46.1697L175.719 31.2559C175.217 30.257 175.624 29.0423 176.629 28.5429C177.635 28.0434 178.857 28.4481 179.36 29.4473L185.044 40.7441L190.729 29.4482C191.232 28.449 192.454 28.0441 193.459 28.5431ZM203.823 28.3295C209.084 28.3295 213.363 32.5815 213.363 37.8086C213.363 38.9253 212.452 39.8307 211.328 39.8307H198.747C199.556 41.8289 201.526 43.2432 203.824 43.2432C205.285 43.2432 206.658 42.678 207.691 41.6515C208.486 40.8618 209.775 40.862 210.57 41.6515C211.365 42.4414 211.364 43.7217 210.57 44.5114C208.767 46.3018 206.372 47.2876 203.823 47.2876C198.563 47.2876 194.283 43.0356 194.283 37.8086C194.283 32.5815 198.563 28.3295 203.823 28.3295ZM198.746 35.7864H208.901C208.092 33.7882 206.121 32.3739 203.823 32.3739C201.526 32.3739 199.555 33.7882 198.746 35.7864ZM222.312 28.3295C226.391 28.3295 229.708 31.6263 229.708 35.6781V45.2658C229.708 46.3826 228.797 47.288 227.673 47.288C226.549 47.288 225.638 46.3826 225.638 45.2658V35.6781C225.638 33.8563 224.146 32.3741 222.312 32.3741C220.479 32.3741 218.987 33.8561 218.987 35.6781V45.2658C218.987 46.3826 218.076 47.288 216.952 47.288C215.828 47.288 214.917 46.3826 214.917 45.2658V30.352C214.917 29.2352 215.828 28.3299 216.952 28.3299C217.68 28.3299 218.317 28.7113 218.677 29.2828C219.751 28.6774 220.992 28.3295 222.312 28.3295ZM248.332 28.3295C249.456 28.3295 250.367 29.2349 250.367 30.3516V37.8086C250.367 43.0356 246.087 47.2876 240.827 47.2876C235.566 47.2876 231.287 43.0356 231.287 37.8086V30.3516C231.287 29.2349 232.198 28.3295 233.322 28.3295C234.446 28.3295 235.357 29.2349 235.357 30.3516V37.8086C235.357 40.8052 237.811 43.2433 240.827 43.2433C243.843 43.2433 246.297 40.8053 246.297 37.8086V30.3516C246.297 29.2349 247.208 28.3295 248.332 28.3295ZM261.46 28.3295C266.721 28.3295 271 32.5815 271 37.8086C271 38.9253 270.089 39.8307 268.965 39.8307H256.383C257.192 41.8289 259.163 43.2432 261.46 43.2432C262.922 43.2432 264.295 42.678 265.328 41.6515C266.123 40.8618 267.411 40.862 268.206 41.6515C269.001 42.4414 269.001 43.7217 268.206 44.5114C266.404 46.3018 264.009 47.2876 261.46 47.2876C256.2 47.2876 251.92 43.0356 251.92 37.8086C251.92 32.5815 256.199 28.3295 261.46 28.3295ZM256.383 35.7864H266.537C265.728 33.7882 263.758 32.3739 261.46 32.3739C259.163 32.3739 257.192 33.7882 256.383 35.7864Z" fill="#F1F1F1"/>
</g>
<defs>
<clipPath id="clip0_1395_518">
<rect width="271" height="69" fill="white"/>
</clipPath>
</defs>
</svg>
