<svg width="30" height="27" viewBox="0 0 30 27" fill="none" xmlns="http://www.w3.org/2000/svg">
<path d="M27.62 2.38129C26.8681 1.62651 25.9746 1.02762 24.9908 0.618985C24.007 0.210349 22.9523 0 21.8871 0C20.8218 0 19.7671 0.210349 18.7833 0.618985C17.7995 1.02762 16.906 1.62651 16.1541 2.38129L15 3.55076L13.8459 2.38129C13.094 1.62651 12.2005 1.02762 11.2167 0.618985C10.2329 0.210349 9.17817 0 8.11294 0C7.04771 0 5.99295 0.210349 5.00916 0.618985C4.02537 1.02762 3.13189 1.62651 2.37997 2.38129C-0.797522 5.55984 -0.992368 10.9274 3.00947 15.0055L15 27L26.9905 15.0055C30.9924 10.9274 30.7975 5.55984 27.62 2.38129Z" fill="#EF4141"/>
</svg>
