<svg width="160" height="629" viewBox="0 0 160 629" fill="none" xmlns="http://www.w3.org/2000/svg">
<path d="M3.82489 47.6496L143.004 45.2437L143.547 76.639L4.36761 79.045L3.82489 47.6496ZM116.844 1.4893L144.24 1.01571L146.31 120.798L118.915 121.271L116.844 1.4893ZM42.7612 124.627L69.5572 124.164L70.7809 194.953L43.9849 195.417L42.7612 124.627ZM4.97579 253.082C4.8767 247.35 5.51198 241.671 6.88163 236.047C8.2536 230.556 10.2312 225.387 12.8145 220.542C15.5335 215.828 18.6638 211.773 22.2057 208.378L40.1038 225.471C36.693 228.73 34.0257 232.577 32.1021 237.011C30.3117 241.443 29.4615 246.258 29.5514 251.457C29.6136 255.057 30.1941 257.78 31.2929 259.628C32.3939 261.61 33.8777 262.584 35.7441 262.552C38.1437 262.51 39.9227 261.28 41.081 258.859C42.375 256.57 43.4575 253.617 44.3284 250.002C45.3327 246.384 46.4002 242.565 47.5309 238.545C48.6616 234.524 50.2623 230.696 52.3331 227.06C54.4039 223.424 57.2861 220.44 60.9797 218.109C64.8066 215.776 69.6529 214.559 75.5187 214.457C81.7845 214.349 87.2113 215.855 91.7993 218.977C96.5206 222.095 100.265 226.565 103.033 232.384C105.8 238.204 107.252 245.047 107.388 252.912C107.531 261.178 106.196 268.802 103.383 275.785C100.705 282.899 96.6052 288.704 91.0821 293.2L73.1839 276.107C76.7304 272.978 79.2034 269.468 80.6031 265.577C82.005 261.819 82.6748 258.14 82.6126 254.541C82.5527 251.074 81.9745 248.484 80.878 246.769C79.9149 245.053 78.5001 244.21 76.6337 244.242C74.634 244.277 73.0538 245.438 71.8932 247.725C70.7326 250.012 69.7167 252.963 68.8458 256.579C67.9748 260.194 66.9073 264.014 65.6433 268.036C64.3793 272.058 62.6453 275.889 60.4412 279.528C58.2371 283.166 55.2216 286.152 51.3946 288.485C47.701 290.816 42.788 292.035 36.6556 292.141C27.1904 292.304 19.5959 288.835 13.8723 281.733C8.15102 274.764 5.18551 265.214 4.97579 253.082ZM9.45648 373.424L64.8482 372.467C69.9141 372.379 73.9525 370.709 76.9634 367.457C80.1099 364.335 81.6417 360.375 81.5588 355.576C81.5011 352.243 80.7172 349.322 79.207 346.815C77.8301 344.305 75.7958 342.34 73.1042 340.919C70.5459 339.497 67.6003 338.814 64.2675 338.872L69.8626 326.973C77.4615 326.842 84.1548 328.327 89.9426 331.427C95.7304 334.527 100.207 338.917 103.372 344.597C106.671 350.274 108.385 356.845 108.514 364.311C108.645 371.91 107.161 378.603 104.06 384.391C101.093 390.176 96.8364 394.651 91.2903 397.814C85.8797 401.108 79.5083 402.818 72.1761 402.945L9.98537 404.02L9.45648 373.424ZM8.34683 309.234L153.525 306.724L154.054 337.32L8.87573 339.829L8.34683 309.234ZM10.3251 423.67L107.511 421.99L108.039 452.585L10.854 454.265L10.3251 423.67ZM121.175 437.156C121.092 432.357 122.622 428.33 125.767 425.075C129.046 421.951 133.019 420.349 137.685 420.268C142.485 420.185 146.51 421.649 149.763 424.66C153.018 427.804 154.687 431.776 154.77 436.575C154.853 441.375 153.321 445.335 150.174 448.457C147.028 451.578 143.055 453.18 138.256 453.263C133.59 453.344 129.564 451.88 126.178 448.871C122.925 445.86 121.258 441.955 121.175 437.156ZM11.2264 475.811L108.412 474.131L108.941 504.726L11.7553 506.406L11.2264 475.811ZM65.1473 505.483L74.9246 492.512C86.3 494.849 95.1725 498.963 101.542 504.854C107.911 510.745 111.188 519.023 111.373 529.688C111.453 534.354 110.79 538.432 109.384 541.924C108.113 545.546 106.034 548.716 103.147 551.433L79.8361 533.633C81.2795 532.275 82.3838 530.589 83.1492 528.575C83.9145 526.562 84.2752 524.289 84.2314 521.756C84.1439 516.69 82.4738 512.651 79.2213 509.64C76.1044 506.761 71.4131 505.375 65.1473 505.483ZM12.957 575.924L150.337 573.549L150.865 604.144L13.4859 606.519L12.957 575.924ZM83.7662 552.696L109.762 552.247L111.052 626.836L85.0556 627.285L83.7662 552.696Z" fill="#444343" fill-opacity="0.4"/>
</svg>
