<svg width="13" height="7" viewBox="0 0 13 7" fill="none" xmlns="http://www.w3.org/2000/svg">
<path d="M0.0016759 0.993352C0.00125294 0.761661 0.0766482 0.537125 0.214774 0.358723C0.292555 0.258314 0.38808 0.175315 0.495878 0.114478C0.603675 0.053641 0.721627 0.016162 0.842979 0.00418745C0.964331 -0.00778707 1.0867 0.00597845 1.20307 0.0446953C1.31945 0.083412 1.42754 0.146319 1.52116 0.229814L6.48729 4.67221L11.4627 0.388472C11.5575 0.306104 11.6665 0.244592 11.7836 0.207475C11.9006 0.170357 12.0234 0.158365 12.1448 0.172187C12.2662 0.186009 12.3838 0.225373 12.491 0.288017C12.5981 0.35066 12.6926 0.435349 12.7691 0.537213C12.8534 0.639811 12.917 0.75996 12.9559 0.89012C12.9949 1.02028 13.0082 1.15764 12.9951 1.29359C12.9821 1.42953 12.9429 1.56112 12.8801 1.68009C12.8173 1.79907 12.7322 1.90286 12.6301 1.98496L7.071 6.77442C6.90521 6.92027 6.69726 7 6.48266 7C6.26806 7 6.06011 6.92027 5.89432 6.77442L0.335222 1.81639C0.223098 1.71691 0.134464 1.59055 0.0765111 1.44755C0.0185586 1.30455 -0.00708024 1.14894 0.0016759 0.993352Z" fill="#f1f1f1"/>
</svg>
