<svg width="64" height="64" viewBox="0 0 64 64" fill="none" xmlns="http://www.w3.org/2000/svg">
<circle cx="31.99" cy="31.9998" r="29.99" stroke="#F1F1F1" stroke-width="4"/>
<path d="M34.7422 21.3384C35.0951 21.3377 35.4372 21.4676 35.7089 21.7055C35.8619 21.8395 35.9883 22.004 36.081 22.1897C36.1737 22.3754 36.2308 22.5786 36.249 22.7876C36.2672 22.9966 36.2463 23.2074 36.1873 23.4079C36.1283 23.6083 36.0325 23.7945 35.9053 23.9558L29.138 32.5101L35.6636 41.0804C35.7891 41.2437 35.8828 41.4315 35.9393 41.6332C35.9959 41.8348 36.0141 42.0462 35.9931 42.2554C35.972 42.4645 35.9121 42.6671 35.8166 42.8517C35.7212 43.0362 35.5922 43.199 35.437 43.3307C35.2807 43.476 35.0977 43.5856 34.8994 43.6526C34.7011 43.7196 34.4919 43.7426 34.2848 43.7202C34.0777 43.6977 33.8773 43.6302 33.696 43.522C33.5148 43.4138 33.3567 43.2672 33.2316 43.0913L25.9357 33.5156C25.7135 33.23 25.592 32.8718 25.592 32.5022C25.592 32.1325 25.7135 31.7743 25.9357 31.4887L33.4884 21.913C33.6399 21.7198 33.8324 21.5671 34.0503 21.4673C34.2681 21.3675 34.5052 21.3233 34.7422 21.3384Z" fill="#F1F1F1"/>
</svg>
