<svg width="29" height="33" viewBox="0 0 29 33" fill="none" xmlns="http://www.w3.org/2000/svg">
<path d="M28.9957 30.015L27.8502 9.25617H22.1274V7.58026C22.1274 3.40032 18.7248 0 14.5423 0C10.3597 0 6.95718 3.40048 6.95718 7.58026V9.25617H0.986691L0.00115804 30.1047L0.00016037 30.1409C-0.00792996 30.8911 0.290424 31.6275 0.818277 32.1603C1.3463 32.6938 2.07987 33 2.83095 33H26.1693C26.9433 33 27.6929 32.6778 28.2254 32.1156C28.7577 31.5534 29.0385 30.7878 28.9957 30.015V30.015ZM8.93553 7.58026C8.93553 4.49064 11.4506 1.97703 14.5423 1.97703C17.6338 1.97703 20.149 4.49064 20.149 7.58026V9.25617H8.93535V7.58026H8.93553ZM26.7884 30.7563C26.6278 30.9256 26.4022 31.0228 26.1691 31.0228H2.83079C2.60459 31.0228 2.38383 30.9307 2.2245 30.7697C2.06897 30.6129 1.97966 30.3973 1.97817 30.1762L2.87355 11.2332H6.95686V13.7367C6.95686 14.2827 7.39968 14.7253 7.94602 14.7253C8.49237 14.7253 8.93519 14.2827 8.93519 13.7367V11.2332H20.1489V13.7367C20.1489 14.2827 20.5917 14.7253 21.138 14.7253C21.6844 14.7253 22.1271 14.2827 22.1271 13.7367V11.2332H25.9776L27.0199 30.1241C27.0333 30.3567 26.9487 30.5872 26.7884 30.7563Z" fill="#F1F1F1"/>
</svg>
