<svg width="159" height="643" viewBox="0 0 159 643" fill="none" xmlns="http://www.w3.org/2000/svg">
<path d="M2.22685 3.05481L143.406 0.614279L143.948 32.0096L2.76958 34.4501L2.22685 3.05481ZM3.73749 90.4418L144.916 88.0012L145.463 119.597L4.28367 122.037L3.73749 90.4418ZM61.543 20.8322L88.7389 20.3621L90.1044 99.3503L62.9084 99.8204L61.543 20.8322ZM3.3128 193.158C3.13996 183.16 5.18292 174.056 9.44168 165.848C13.8361 157.771 19.859 151.333 27.5105 146.533C35.1621 141.733 43.7871 139.251 53.3857 139.085C62.9842 138.919 71.6233 141.103 79.3028 145.638C86.9823 150.172 93.0909 156.401 97.6285 164.324C102.299 172.244 104.722 181.27 104.898 191.402C105.073 201.534 103.03 210.637 98.7687 218.712C94.5077 226.787 88.5514 233.224 80.8999 238.024C73.3817 242.821 64.8233 245.303 55.2247 245.469C45.6261 245.635 36.9204 243.451 29.1076 238.919C21.2948 234.387 15.0529 228.161 10.3819 220.24C5.84433 212.317 3.48794 203.29 3.3128 193.158ZM31.1086 192.678C31.1847 197.077 32.1847 200.927 34.1087 204.228C36.166 207.526 38.9428 210.012 42.4389 211.685C46.0706 213.489 50.1528 214.352 54.6854 214.273C59.2181 214.195 63.1347 213.194 66.4353 211.27C69.8692 209.344 72.4905 206.698 74.2993 203.333C76.2437 200.099 77.1778 196.282 77.1018 191.883C77.028 187.617 75.9625 183.834 73.9052 180.536C71.9812 177.236 69.27 174.682 65.7716 172.876C62.2731 171.069 58.2576 170.205 53.725 170.283C49.3256 170.359 45.3423 171.362 41.7751 173.29C38.3413 175.217 35.6533 177.864 33.7112 181.231C31.9024 184.596 31.0349 188.412 31.1086 192.678ZM5.30453 308.375C5.13169 298.377 7.17465 289.274 11.4334 281.065C15.8278 272.988 21.8507 266.55 29.5023 261.75C37.1538 256.951 45.7788 254.468 55.3774 254.302C64.976 254.136 73.615 256.32 81.2945 260.855C88.9741 265.389 95.0826 271.618 99.6202 279.541C104.291 287.461 106.714 296.487 106.889 306.619C107.065 316.751 105.022 325.854 100.76 333.929C96.4994 342.004 90.5431 348.441 82.8916 353.241C75.3734 358.038 66.815 360.52 57.2164 360.686C47.6179 360.852 38.9122 358.669 31.0993 354.136C23.2865 349.604 17.0446 343.378 12.3737 335.457C7.83606 327.534 5.47968 318.507 5.30453 308.375ZM33.1004 307.895C33.1764 312.294 34.1765 316.144 36.1005 319.445C38.1578 322.743 40.9345 325.229 44.4306 326.902C48.0623 328.706 52.1445 329.569 56.6772 329.491C61.2098 329.412 65.1264 328.411 68.427 326.487C71.8609 324.561 74.4822 321.915 76.291 318.55C78.2354 315.316 79.1696 311.499 79.0935 307.1C79.0198 302.834 77.9542 299.052 75.8969 295.753C73.9729 292.453 71.2617 289.899 67.7633 288.093C64.2649 286.286 60.2493 285.422 55.7167 285.501C51.3173 285.577 47.3341 286.579 43.7669 288.508C40.333 290.434 37.645 293.081 35.7029 296.448C33.8941 299.813 33.0266 303.629 33.1004 307.895ZM7.4029 418.19C7.24388 408.991 9.30182 400.754 13.5767 393.479C17.8539 386.338 23.7562 380.635 31.2837 376.371C38.8134 372.24 47.4442 370.091 57.1761 369.922C66.908 369.754 75.6079 371.604 83.2759 375.472C90.9462 379.473 97.0421 384.969 101.564 391.958C106.087 399.081 108.429 407.242 108.588 416.441C108.703 423.106 107.54 429.127 105.099 434.504C102.661 440.013 99.2054 444.54 94.7327 448.085C90.3955 451.76 85.3642 453.848 79.6386 454.347L38.6448 455.055C32.9054 454.755 27.6727 452.911 22.9468 449.526C18.3543 446.138 14.6109 441.735 11.7169 436.318C8.95612 430.898 7.51813 424.856 7.4029 418.19ZM35.0921 423.112C35.1682 427.511 36.167 431.295 38.0887 434.462C40.1437 437.627 42.9205 440.113 46.4189 441.919C49.9173 443.726 53.9328 444.59 58.4655 444.511C62.9981 444.433 66.9147 443.432 70.2153 441.508C73.6515 439.715 76.3406 437.134 78.2827 433.767C80.2271 430.533 81.1624 426.783 81.0887 422.517C81.015 418.251 79.9494 414.469 77.8921 411.17C75.8371 408.006 73.0592 405.453 69.5585 403.513C66.0601 401.707 62.1112 400.842 57.7119 400.918C53.3125 400.994 49.3959 401.995 45.962 403.921C42.5282 405.848 39.8402 408.494 37.8981 411.862C35.956 415.229 35.0207 418.979 35.0921 423.112ZM10.3705 474.147L9.85199 444.151L36.0481 443.699L59.7241 447.89L83.2307 442.283L155.02 441.042L155.549 471.637L10.3705 474.147ZM10.7429 495.689L107.928 494.009L108.457 524.604L11.2718 526.284L10.7429 495.689ZM121.593 509.175C121.51 504.376 123.04 500.349 126.184 497.094C129.464 493.97 133.437 492.368 138.103 492.287C142.902 492.204 146.928 493.668 150.181 496.679C153.436 499.823 155.105 503.795 155.188 508.594C155.271 513.394 153.739 517.354 150.592 520.476C147.446 523.597 143.473 525.199 138.674 525.282C134.008 525.363 129.982 523.899 126.596 520.89C123.343 517.879 121.676 513.974 121.593 509.175ZM10.2742 595.861C10.0922 585.329 12.0627 575.893 16.1858 567.554C20.4446 559.346 26.3998 552.842 34.0513 548.042C41.7028 543.243 50.3945 540.759 60.1264 540.591C69.8583 540.422 78.5628 542.539 86.24 546.94C94.0529 551.473 100.227 557.633 104.762 565.423C109.298 573.212 111.65 582.04 111.821 591.905C111.987 601.503 110.067 610.004 106.061 617.408C102.055 624.812 96.4216 630.643 89.1608 634.903C81.9023 639.296 73.5405 641.574 64.0752 641.737C62.3421 641.767 60.4734 641.666 58.4691 641.434C56.6004 641.333 54.395 641.038 51.8528 640.549L50.2044 556.765L71.2013 556.402L72.625 627.188L63.5982 614.142C69.195 613.911 73.7794 612.965 77.3512 611.303C81.0563 609.639 83.8144 607.191 85.6255 603.959C87.5722 600.859 88.5063 597.042 88.428 592.509C88.345 587.71 87.1393 583.53 84.8107 579.97C82.6178 576.541 79.5043 573.861 75.4703 571.93C71.4387 570.133 66.5566 569.284 60.8241 569.383C55.0917 569.482 50.1763 570.567 46.0782 572.638C42.1157 574.84 39.0335 577.827 36.8317 581.599C34.7655 585.502 33.7774 590.053 33.8672 595.253C33.9502 600.052 34.825 604.371 36.4916 608.209C38.2915 612.045 40.8832 615.401 44.2667 618.276L27.7596 635.364C22.0775 630.662 17.7779 624.935 14.8608 618.185C11.9436 611.434 10.4148 603.993 10.2742 595.861Z" fill="black" fill-opacity="0.2"/>
</svg>
