<svg width="27" height="28" viewBox="0 0 27 28" fill="none" xmlns="http://www.w3.org/2000/svg">
<path d="M26.6249 26.6199L19.6591 18.7983C21.5699 16.7803 22.6241 14.107 22.6024 11.3346C22.5807 8.56212 21.4848 5.90397 19.5426 3.91307C17.6004 1.92218 14.9615 0.751835 12.1748 0.645497C9.38811 0.53916 6.66824 1.50502 4.58098 3.34215C2.49372 5.17928 1.19977 7.74624 0.968313 10.509C0.736855 13.2718 1.58571 16.0177 3.33828 18.1755C5.09086 20.3333 7.61223 21.7369 10.3779 22.0942C13.1435 22.4515 15.9405 21.7351 18.187 20.094L25.1528 27.9156L26.6249 26.6199ZM2.94778 10.8919C3.05341 9.15462 3.67486 7.48785 4.73353 6.10238C5.79221 4.7169 7.24056 3.67495 8.89544 3.10828C10.5503 2.54162 12.3374 2.47568 14.0307 2.91882C15.724 3.36196 17.2474 4.29427 18.4084 5.59785C19.5693 6.90143 20.3157 8.51774 20.553 10.2424C20.7903 11.967 20.5079 13.7225 19.7416 15.2869C18.9753 16.8513 17.7594 18.1543 16.2478 19.0311C14.7361 19.908 12.9965 20.3193 11.2491 20.213C8.90674 20.068 6.71725 19.0052 5.16099 17.2577C3.60472 15.5103 2.80878 13.2209 2.94778 10.8919V10.8919Z" fill="#F1F1F1"/>
</svg>
